<svg width="464" height="106" viewBox="0 0 464 106" fill="none" xmlns="http://www.w3.org/2000/svg">
<g clip-path="url(#clip0_3_225)">
<path d="M63.5863 82.6318H37.2154C35.0003 82.6318 33.1016 84.4097 33.1016 86.7104C33.1016 89.0111 34.8948 90.789 37.2154 90.789H63.5863C65.8014 90.789 67.7001 89.0111 67.7001 86.7104C67.7001 84.4097 65.8014 82.6318 63.5863 82.6318Z" fill="white"/>
<path d="M38.8984 95.2856C38.8984 95.2856 40.0588 102.083 50.3961 102.083C60.7335 102.083 61.8938 95.2856 61.8938 95.2856H50.3961H38.8984Z" fill="white"/>
<path d="M82.5718 26.6822C82.2554 27.1005 81.9389 27.5188 81.517 27.9372L81.6225 29.715C81.728 32.0157 80.7786 34.2119 79.0909 35.676L73.8167 40.2774C73.7112 45.2972 71.918 50.317 68.437 54.3955C67.5932 55.4413 66.6438 56.3825 65.6945 57.1146C56.3064 65.1671 43.7539 51.5719 52.509 42.7873L55.99 39.3362L59.6819 35.676L59.7874 35.5714L65.2725 30.0287C67.4877 35.1531 64.9561 41.3232 64.9561 41.3232L75.9264 31.8066C76.2428 31.4928 76.3483 31.1791 76.3483 30.7608L76.0318 25.741C85.2089 17.5839 84.1541 5.87109 84.1541 5.87109C84.1541 5.87109 72.4454 4.92989 64.3232 14.2374L59.26 14.0282C58.838 14.0282 58.4161 14.1328 58.2051 14.4465L48.7116 25.4273C48.7116 25.4273 54.8297 22.8128 59.9984 25.009L51.4542 33.5844L45.8636 39.2316C37.6359 47.4933 24.345 37.0355 30.5685 27.2051C31.5178 25.6364 32.6782 24.2769 34.0494 22.9174C38.4797 18.6297 44.1758 16.4335 49.872 16.3289L54.1968 11.3092C55.6735 9.53134 57.9942 8.59013 60.2093 8.69471L62.0025 8.79929C62.4245 8.38098 62.9519 7.96266 63.3738 7.64893C58.6271 5.76651 53.3529 4.82531 47.8678 5.24362C31.3069 6.39399 17.1721 20.1983 15.6953 36.6172C14.8514 46.6567 18.3324 55.9642 24.5559 62.7618C28.4588 67.1541 31.4123 72.2785 32.7836 77.8211H67.9096C69.2809 72.383 72.0235 67.2587 75.9264 62.971C81.6225 56.8008 85.2089 48.6437 85.2089 39.65C85.2089 35.0485 84.2596 30.6562 82.5718 26.6822ZM72.7619 12.6687C74.0277 11.3092 76.2428 11.3092 77.5086 12.6687C78.8799 13.9236 78.8799 16.1198 77.5086 17.3747C76.2428 18.7343 74.0277 18.7343 72.7619 17.3747C71.4961 16.1198 71.3906 13.9236 72.7619 12.6687ZM67.6987 19.4663C68.5425 18.6297 69.9138 18.6297 70.7577 19.4663C71.6015 20.3029 71.6015 21.6624 70.7577 22.4991C69.9138 23.3357 68.5425 23.3357 67.6987 22.4991C66.8548 21.6624 66.8548 20.3029 67.6987 19.4663Z" fill="white"/>
<path d="M103.141 73.5335H104.723V81.7952L111.157 73.5335H112.529V84.3051H111.052V76.0434L104.617 84.3051H103.141V73.5335Z" fill="white"/>
<path d="M126.665 73.5337V84.3053H125.083V79.3901H118.965V84.2007H117.383V73.5337H118.965V78.1351H125.189V73.5337H126.665Z" fill="white"/>
<path d="M140.9 73.5337V84.3053H139.317V79.3901H133.094V84.2007H131.617V73.5337H133.199V78.1351H139.423V73.5337H140.9Z" fill="white"/>
<path d="M147.762 83.6775C146.918 83.1546 146.18 82.5271 145.652 81.6905C145.125 80.8539 144.914 79.9127 144.914 78.8669C144.914 77.8211 145.125 76.8799 145.652 76.0433C146.18 75.2066 146.813 74.5792 147.762 74.0563C148.606 73.5334 149.661 73.3242 150.716 73.3242C151.77 73.3242 152.825 73.5334 153.669 74.0563C154.513 74.5792 155.251 75.2066 155.673 76.0433C156.201 76.8799 156.412 77.8211 156.412 78.8669C156.412 79.9127 156.201 80.8539 155.673 81.6905C155.146 82.5271 154.513 83.1546 153.669 83.6775C152.825 84.2004 151.77 84.4095 150.716 84.4095C149.661 84.305 148.606 84.0958 147.762 83.6775ZM152.825 82.4226C153.458 82.1088 153.986 81.5859 154.302 80.9585C154.619 80.331 154.83 79.5989 154.83 78.8669C154.83 78.1348 154.619 77.4028 154.302 76.7753C153.986 76.1478 153.458 75.6249 152.825 75.3112C152.192 74.9975 151.454 74.7883 150.716 74.7883C149.872 74.7883 149.239 74.9975 148.606 75.3112C147.973 75.6249 147.446 76.1478 147.129 76.7753C146.813 77.4028 146.602 78.1348 146.602 78.8669C146.602 79.5989 146.813 80.331 147.129 80.9585C147.446 81.5859 147.973 82.1088 148.606 82.4226C149.239 82.7363 149.977 82.9454 150.716 82.9454C151.454 82.9454 152.192 82.8409 152.825 82.4226Z" fill="white"/>
<path d="M168.853 79.5992C169.275 80.0176 169.38 80.645 169.38 81.2725C169.38 82.2137 169.064 82.9458 168.325 83.4687C167.692 83.9915 166.638 84.2007 165.372 84.2007H160.414V73.5337H165.055C166.216 73.5337 167.165 73.7428 167.798 74.2657C168.431 74.7886 168.747 75.4161 168.747 76.3573C168.747 76.9848 168.642 77.4031 168.325 77.8214C168.009 78.2397 167.587 78.5535 167.06 78.7626C167.903 78.8672 168.536 79.1809 168.853 79.5992ZM161.996 78.2397H165.055C165.794 78.2397 166.427 78.1351 166.743 77.8214C167.165 77.5077 167.376 77.0894 167.376 76.5665C167.376 76.0436 167.165 75.5207 166.743 75.2069C166.321 74.8932 165.794 74.7886 165.055 74.7886H161.996V78.2397ZM167.903 81.1679C167.903 80.5404 167.692 80.1221 167.27 79.8084C166.849 79.4947 166.216 79.3901 165.372 79.3901H161.996V83.0503H165.372C167.06 83.0503 167.903 82.4229 167.903 81.1679Z" fill="white"/>
<path d="M180.564 81.5862H174.868L173.707 84.3053H172.125L176.977 73.5337H178.454L183.412 84.3053H181.829L180.564 81.5862ZM180.036 80.3313L177.716 75.1024L175.395 80.3313H180.036Z" fill="white"/>
<path d="M197.548 82.8412V86.606H196.072V84.2007H186.789V73.5337H188.266V82.9458H194.278V73.5337H195.755V82.9458H197.548V82.8412Z" fill="white"/>
<path d="M201.133 73.5337H202.61V81.7954L209.044 73.5337H210.415V84.3053H208.939V76.0436L202.504 84.3053H201.133V73.5337Z" fill="white"/>
<path d="M215.484 73.5337H216.961V81.7954L223.396 73.5337H224.767V84.3053H223.29V76.0436L216.856 84.3053H215.484V73.5337Z" fill="white"/>
<path d="M259.892 74.7882H256.2V84.2003H254.723V74.7882H251.031V73.4287H259.997V74.7882H259.892Z" fill="white"/>
<path d="M271.173 82.8412V84.2007H263.367V73.5337H270.962V74.8932H264.844V78.1351H270.224V79.3901H264.844V82.8412H271.173Z" fill="white"/>
<path d="M275.707 73.5333L278.555 77.4027L281.403 73.5333H283.197L279.505 78.6576L283.408 84.2003H281.614L278.555 79.9126L275.496 84.2003H273.703L277.606 78.6576L273.914 73.4287H275.707V73.5333Z" fill="white"/>
<path d="M295.857 73.5337V84.3053H294.275V79.3901H288.051V84.2007H286.469V73.5337H288.051V78.1351H294.275V73.5337H295.857Z" fill="white"/>
<path d="M302.715 83.6775C301.871 83.1546 301.133 82.5271 300.605 81.6905C300.078 80.8539 299.867 79.9127 299.867 78.8669C299.867 77.8211 300.078 76.8799 300.605 76.0433C301.133 75.2066 301.766 74.5792 302.715 74.0563C303.559 73.5334 304.614 73.3242 305.668 73.3242C306.723 73.3242 307.778 73.5334 308.622 74.0563C309.466 74.5792 310.204 75.2066 310.626 76.0433C311.154 76.8799 311.365 77.8211 311.365 78.8669C311.365 79.9127 311.154 80.8539 310.626 81.6905C310.099 82.5271 309.466 83.1546 308.622 83.6775C307.778 84.2004 306.723 84.4095 305.668 84.4095C304.508 84.305 303.559 84.0958 302.715 83.6775ZM307.778 82.4226C308.411 82.1088 308.938 81.5859 309.255 80.9585C309.571 80.331 309.782 79.5989 309.782 78.8669C309.782 78.1348 309.571 77.4028 309.255 76.7753C308.938 76.1478 308.411 75.6249 307.778 75.3112C307.145 74.9975 306.407 74.7883 305.668 74.7883C304.825 74.7883 304.192 74.9975 303.559 75.3112C302.926 75.6249 302.398 76.1478 302.082 76.7753C301.766 77.4028 301.555 78.1348 301.555 78.8669C301.555 79.5989 301.766 80.331 302.082 80.9585C302.398 81.5859 302.926 82.1088 303.559 82.4226C304.192 82.7363 304.93 82.9454 305.668 82.9454C306.407 82.9454 307.145 82.8409 307.778 82.4226Z" fill="white"/>
<path d="M323.919 73.5337V84.3053H322.443V74.8932H317.696L317.59 78.0306C317.59 79.4947 317.379 80.7496 317.274 81.5862C317.063 82.5274 316.747 83.1549 316.325 83.6778C315.903 84.0961 315.375 84.4099 314.637 84.4099C314.32 84.4099 314.004 84.4099 313.688 84.3053L313.793 82.9458C314.004 82.9458 314.109 83.0503 314.32 83.0503C314.742 83.0503 315.164 82.8412 315.375 82.5274C315.692 82.2137 315.797 81.6908 316.008 80.9588C316.114 80.2267 316.219 79.2855 316.219 78.1351L316.43 73.6383H323.919V73.5337Z" fill="white"/>
<path d="M330.77 83.6775C329.926 83.1546 329.188 82.5271 328.66 81.6905C328.133 80.8539 327.922 79.9127 327.922 78.8669C327.922 77.8211 328.133 76.8799 328.66 76.0433C329.188 75.2066 329.821 74.5792 330.77 74.0563C331.614 73.5334 332.669 73.3242 333.723 73.3242C334.778 73.3242 335.833 73.5334 336.677 74.0563C337.521 74.5792 338.259 75.2066 338.681 76.0433C339.209 76.8799 339.42 77.8211 339.42 78.8669C339.42 79.9127 339.209 80.8539 338.681 81.6905C338.154 82.5271 337.521 83.1546 336.677 83.6775C335.833 84.2004 334.778 84.4095 333.723 84.4095C332.669 84.305 331.614 84.0958 330.77 83.6775ZM335.833 82.4226C336.466 82.1088 336.993 81.5859 337.31 80.9585C337.626 80.331 337.837 79.5989 337.837 78.8669C337.837 78.1348 337.626 77.4028 337.31 76.7753C336.993 76.1478 336.466 75.6249 335.833 75.3112C335.2 74.9975 334.462 74.7883 333.723 74.7883C332.88 74.7883 332.247 74.9975 331.614 75.3112C330.981 75.6249 330.453 76.1478 330.137 76.7753C329.821 77.4028 329.61 78.1348 329.61 78.8669C329.61 79.5989 329.821 80.331 330.137 80.9585C330.453 81.5859 330.981 82.1088 331.614 82.4226C332.247 82.7363 332.985 82.9454 333.723 82.9454C334.462 82.9454 335.2 82.8409 335.833 82.4226Z" fill="white"/>
<path d="M350.606 74.7886H345.016V84.2007H343.539V73.5337H350.606V74.7886Z" fill="white"/>
<path d="M353.984 73.5337H355.461V81.7954L361.896 73.5337H363.267V84.3053H361.79V76.0436L355.356 84.3053H353.984V73.5337Z" fill="white"/>
<path d="M368.219 73.5337H369.696V81.7954L376.13 73.5337H377.501V84.3053H376.025V76.0436L369.59 84.3053H368.219V73.5337Z" fill="white"/>
<path d="M414.111 73.5337L409.259 82.4229C408.837 83.1549 408.415 83.6778 407.887 83.9915C407.36 84.3053 406.832 84.5144 406.2 84.5144C405.778 84.5144 405.25 84.4099 404.723 84.2007L405.145 82.9458C405.567 83.0503 405.883 83.1549 406.2 83.1549C406.832 83.1549 407.465 82.8412 407.887 82.1091L408.098 81.6908L403.773 73.5337H405.461L408.942 80.3313L412.529 73.5337H414.111Z" fill="white"/>
<path d="M419.063 83.6775C418.219 83.1546 417.481 82.5271 417.059 81.6905C416.531 80.8539 416.32 79.9127 416.32 78.8669C416.32 77.8211 416.531 76.8799 417.059 76.0433C417.586 75.2066 418.219 74.5792 419.063 74.0563C419.907 73.5334 420.962 73.3242 422.016 73.3242C422.86 73.3242 423.599 73.4288 424.337 73.7425C425.075 74.0563 425.603 74.4746 426.13 74.9975L425.075 75.9387C424.232 75.1021 423.282 74.6837 422.016 74.6837C421.173 74.6837 420.54 74.8929 419.801 75.2066C419.168 75.5204 418.641 76.0433 418.324 76.6707C418.008 77.2982 417.797 78.0303 417.797 78.7623C417.797 79.4944 418.008 80.2264 418.324 80.8539C418.641 81.4813 419.168 82.0042 419.801 82.318C420.434 82.6317 421.173 82.8409 422.016 82.8409C423.177 82.8409 424.232 82.4226 425.075 81.5859L426.13 82.5271C425.603 83.05 425.075 83.4683 424.337 83.7821C423.599 84.0958 422.86 84.2004 422.016 84.2004C420.962 84.305 419.907 84.0958 419.063 83.6775Z" fill="white"/>
<path d="M439.107 73.5337V84.3053H437.63V74.8932H431.406V84.3053H429.93V73.5337H439.107Z" fill="white"/>
<path d="M451.868 82.8412V84.2007H444.062V73.5337H451.657V74.8932H445.539V78.1351H450.919V79.3901H445.539V82.8412H451.868Z" fill="white"/>
<path d="M456.301 73.5333L459.149 77.4027L461.997 73.5333H463.79L460.098 78.6576L464.001 84.2003H462.208L459.149 79.9126L456.09 84.2003H454.297L458.2 78.6576L454.508 73.4287H456.301V73.5333Z" fill="white"/>
<path d="M237.844 80.7495C238.893 80.7495 239.743 79.9067 239.743 78.8671C239.743 77.8275 238.893 76.9847 237.844 76.9847C236.796 76.9847 235.945 77.8275 235.945 78.8671C235.945 79.9067 236.796 80.7495 237.844 80.7495Z" fill="white"/>
<path d="M392.375 80.7497C393.424 80.7497 394.274 79.9069 394.274 78.8673C394.274 77.8277 393.424 76.9849 392.375 76.9849C391.327 76.9849 390.477 77.8277 390.477 78.8673C390.477 79.9069 391.327 80.7497 392.375 80.7497Z" fill="white"/>
<path d="M122.972 36.0941C127.929 36.0941 131.41 37.7674 134.047 41.6368L134.364 42.0551L141.22 38.0811L141.431 37.9766L141.115 37.4537C137.423 31.1789 131.305 27.937 123.077 27.937C111.368 28.0416 103.141 35.6758 103.141 46.552C103.141 57.6373 111.157 65.167 123.077 65.167C131.305 65.167 137.423 62.0296 141.115 55.6503L141.431 55.1274L134.575 51.1534L134.469 51.0489L134.153 51.4672C131.41 55.3366 128.035 57.0098 123.077 57.0098C116.537 57.0098 112.212 52.8267 112.212 46.4474C112.107 40.1727 116.326 36.0941 122.972 36.0941Z" fill="white"/>
<path d="M181.302 42.8915C181.302 34.7343 175.078 28.8779 166.429 28.8779H145.438V64.33H154.404V56.6958H166.429L170.543 64.33H180.353L174.867 54.4997C178.981 52.0944 181.302 47.8066 181.302 42.8915ZM172.336 42.8915C172.336 46.3425 170.015 48.4341 166.112 48.4341H154.404V37.0351H166.112C169.91 37.0351 172.336 39.3358 172.336 42.8915Z" fill="white"/>
<path d="M194.279 50.3167H215.481V42.1596H194.279V37.0353H217.907V28.7736H185.313V64.3303H218.751V55.964H194.279V50.3167Z" fill="white"/>
<path d="M250.918 28.7734H237.416L221.805 64.2256H231.509L233.724 58.9966H254.294L256.509 64.121V64.2256H266.002L251.024 29.1918L250.918 28.7734ZM245.011 36.826L250.813 51.1532H237.1L243.112 36.826H245.011Z" fill="white"/>
<path d="M262.742 36.9306H276.877V64.3301H285.843V36.9306H299.872V28.7734H262.742V36.9306Z" fill="white"/>
<path d="M312.736 50.3166H333.938V42.1595H312.736V37.0351H336.258V28.7734H303.664V64.3301H337.208V55.9639H312.736V50.3166Z" fill="white"/>
<path d="M377.607 42.8915C377.607 34.7343 371.383 28.8779 362.733 28.8779H341.742V64.33H350.708V56.6958H362.628L366.742 64.33H376.552L371.067 54.4997C375.286 52.0944 377.607 47.8066 377.607 42.8915ZM368.64 42.8915C368.64 46.3425 366.32 48.4341 362.417 48.4341H350.708V37.0351H362.417C366.214 37.0351 368.64 39.3358 368.64 42.8915Z" fill="white"/>
<path d="M417.482 42.8915C417.482 34.7343 411.258 28.8779 402.608 28.8779H381.617V64.33H390.583V56.6958H402.503L406.617 64.33H416.427L410.942 54.4997C415.055 52.0944 417.482 47.8066 417.482 42.8915ZM390.583 37.0351H402.292C406.089 37.0351 408.515 39.3358 408.515 42.8915C408.515 46.3425 406.195 48.4341 402.292 48.4341H390.583V37.0351Z" fill="white"/>
<path d="M449.016 29.1917L448.91 28.8779H435.408L419.797 64.33H429.501L431.716 59.1011H452.286L454.501 64.2255V64.33H463.994L449.016 29.1917ZM443.003 36.8259L448.805 51.1532H435.092L441.105 36.8259H443.003Z" fill="white"/>
</g>
<defs>
<clipPath id="clip0_3_225">
<rect width="232" height="53" fill="white" transform="scale(2)"/>
</clipPath>
</defs>
</svg>
